<?xml version="1.0" encoding="UTF-8"?>
<svg xmlns="http://www.w3.org/2000/svg" xmlns:xlink="http://www.w3.org/1999/xlink" width="480px" height="480px" viewBox="0 0 480 480" version="1.1">
<g id="surface182604">
<path style=" stroke:none;fill-rule:nonzero;fill:rgb(56.470588%,79.215686%,97.647059%);fill-opacity:1;" d="M 330 420 L 50 420 L 50 40 L 240 40 L 330 130 Z M 330 420 "/>
<path style=" stroke:none;fill-rule:nonzero;fill:rgb(88.235294%,96.078431%,99.607843%);fill-opacity:1;" d="M 315 140 L 230 140 L 230 55 Z M 315 140 "/>
<path style=" stroke:none;fill-rule:nonzero;fill:rgb(38.039216%,38.039216%,38.039216%);fill-opacity:1;" d="M 345.117188 375.804688 L 364.914062 356.003906 L 449.769531 440.855469 L 429.972656 460.65625 Z M 345.117188 375.804688 "/>
<path style=" stroke:none;fill-rule:nonzero;fill:rgb(38.039216%,38.039216%,38.039216%);fill-opacity:1;" d="M 280 180 C 219.25 180 170 229.25 170 290 C 170 350.75 219.25 400 280 400 C 340.75 400 390 350.75 390 290 C 390 229.25 340.75 180 280 180 Z M 280 180 "/>
<path style=" stroke:none;fill-rule:nonzero;fill:rgb(56.470588%,79.215686%,97.647059%);fill-opacity:1;" d="M 280 200 C 230.292969 200 190 240.292969 190 290 C 190 339.707031 230.292969 380 280 380 C 329.707031 380 370 339.707031 370 290 C 370 240.292969 329.707031 200 280 200 Z M 280 200 "/>
<path style=" stroke:none;fill-rule:nonzero;fill:rgb(21.568627%,27.843137%,30.980392%);fill-opacity:1;" d="M 368.570312 398.792969 L 388.367188 378.996094 L 449.886719 440.511719 L 430.089844 460.3125 Z M 368.570312 398.792969 "/>
<path style=" stroke:none;fill-rule:nonzero;fill:rgb(9.803922%,46.27451%,82.352941%);fill-opacity:1;" d="M 300 310 L 203 310 C 207 326 216 340 228 350 L 300 350 Z M 203 270 L 300 270 L 300 230 L 227 230 C 215 240 207 254 203 270 Z M 201 200 L 110 200 L 110 220 L 183 220 C 188 213 194 206 201 200 Z M 171 240 L 110 240 L 110 260 L 164 260 C 166 253 168 246 171 240 Z M 160 290 C 160 287 160 283 161 280 L 110 280 L 110 300 L 161 300 C 160 297 160 293 160 290 Z M 164 320 L 110 320 L 110 340 L 171 340 C 168 334 166 327 164 320 Z M 164 320 "/>
</g>
</svg>
